<svg width="1181" height="471" viewBox="0 0 1181 471" fill="none" xmlns="http://www.w3.org/2000/svg">
<rect width="143.731" height="147.625" transform="translate(970.965 272)" fill="#085AA3"/>
<g clip-path="url(#clip0_22_827)">
<path d="M1083.46 317.63C1082.6 317.134 1081.58 317 1080.63 317.256C1079.67 317.512 1078.85 318.138 1078.36 318.996L1075.93 323.195C1075.39 323.149 1074.84 323.261 1074.35 323.516C1073.86 323.771 1073.46 324.159 1073.18 324.636L1070.88 328.62V315.764H1079.6C1079.93 315.764 1080.25 315.632 1080.48 315.399C1080.71 315.165 1080.84 314.849 1080.84 314.519V309.538C1080.84 307.888 1080.19 306.306 1079.02 305.139C1077.85 303.972 1076.27 303.315 1074.62 303.312H1016.52C1014.87 303.314 1013.28 303.971 1012.12 305.138C1010.95 306.305 1010.29 307.887 1010.29 309.538V375.861H1001.58C1001.25 375.861 1000.93 375.993 1000.7 376.226C1000.46 376.46 1000.33 376.776 1000.33 377.106V382.087C1000.33 383.738 1000.99 385.32 1002.16 386.487C1003.32 387.654 1004.91 388.311 1006.56 388.312H1064.66C1066.31 388.311 1067.89 387.654 1069.06 386.487C1070.23 385.32 1070.89 383.738 1070.89 382.087V350.197L1070.91 350.16L1080.25 333.986L1082.05 335.021C1082.14 335.077 1082.21 335.167 1082.24 335.273C1082.27 335.379 1082.25 335.492 1082.2 335.588L1077.22 344.22C1077.14 344.362 1077.08 344.519 1077.06 344.681C1077.04 344.843 1077.05 345.008 1077.09 345.166C1077.14 345.324 1077.21 345.472 1077.31 345.602C1077.41 345.731 1077.53 345.84 1077.67 345.922C1077.82 346.004 1077.97 346.057 1078.13 346.078C1078.3 346.099 1078.46 346.089 1078.62 346.046C1078.78 346.004 1078.93 345.931 1079.05 345.831C1079.18 345.731 1079.29 345.607 1079.38 345.466L1084.36 336.833C1084.74 336.166 1084.85 335.373 1084.65 334.629C1084.45 333.885 1083.96 333.25 1083.29 332.865L1081.5 331.827L1082.53 330.029C1082.81 329.554 1082.94 329.01 1082.92 328.462C1082.9 327.913 1082.72 327.382 1082.41 326.93L1084.83 322.736C1085.33 321.878 1085.46 320.857 1085.21 319.899C1084.95 318.942 1084.32 318.125 1083.46 317.63ZM1074.62 305.803C1075.61 305.804 1076.56 306.197 1077.26 306.898C1077.96 307.598 1078.36 308.548 1078.36 309.538V313.273H1070.89V309.538C1070.89 308.548 1071.28 307.598 1071.98 306.898C1072.68 306.197 1073.63 305.804 1074.62 305.803ZM1006.56 385.822C1005.57 385.821 1004.62 385.428 1003.92 384.727C1003.22 384.027 1002.82 383.077 1002.82 382.087V378.352H1058.44V382.087C1058.43 383.435 1058.87 384.746 1059.68 385.822H1006.56ZM1064.66 385.822C1063.67 385.821 1062.72 385.428 1062.02 384.727C1061.32 384.027 1060.93 383.077 1060.93 382.087V377.106C1060.93 376.776 1060.79 376.46 1060.56 376.226C1060.33 375.993 1060.01 375.861 1059.68 375.861H1012.78V309.538C1012.78 308.548 1013.18 307.598 1013.88 306.898C1014.58 306.197 1015.53 305.804 1016.52 305.803H1069.64C1068.83 306.879 1068.39 308.191 1068.4 309.538V332.931L1061.57 344.765C1061.37 345.095 1061.25 345.461 1061.2 345.841C1061.15 346.22 1061.17 346.605 1061.27 346.975C1061.32 347.141 1061.38 347.303 1061.45 347.458L1054.74 359.09C1052.74 362.552 1051.7 366.481 1051.71 370.477C1051.71 370.695 1051.77 370.907 1051.88 371.095C1051.99 371.282 1052.15 371.437 1052.34 371.545C1052.53 371.653 1052.74 371.71 1052.96 371.71C1053.17 371.71 1053.39 371.653 1053.58 371.545C1057.04 369.561 1059.92 366.694 1061.92 363.234L1068.4 352.026V382.087C1068.4 383.077 1068 384.027 1067.3 384.727C1066.6 385.428 1065.65 385.821 1064.66 385.822ZM1063.35 349.148L1066.22 350.808L1059.76 361.989C1058.39 364.371 1056.54 366.445 1054.33 368.082C1054.64 365.35 1055.51 362.711 1056.89 360.329L1063.35 349.148ZM1068.75 348.915C1068.73 348.963 1068.69 349.004 1068.65 349.037C1068.6 349.07 1068.55 349.094 1068.5 349.108C1068.45 349.123 1068.39 349.126 1068.34 349.119C1068.29 349.112 1068.23 349.094 1068.19 349.066L1063.87 346.576C1063.82 346.549 1063.78 346.513 1063.75 346.47C1063.72 346.427 1063.69 346.377 1063.68 346.325C1063.66 346.272 1063.66 346.217 1063.67 346.163C1063.67 346.109 1063.69 346.057 1063.72 346.01L1075.34 325.881C1075.37 325.834 1075.4 325.792 1075.45 325.759C1075.49 325.726 1075.54 325.702 1075.59 325.688C1075.63 325.678 1075.66 325.673 1075.7 325.673C1075.77 325.673 1075.84 325.693 1075.91 325.73L1080.22 328.22C1080.32 328.275 1080.39 328.366 1080.42 328.472C1080.44 328.578 1080.43 328.691 1080.37 328.786L1078.71 331.661L1068.75 348.915ZM1082.67 321.486L1080.39 325.441L1078.23 324.196L1080.52 320.246C1080.68 319.96 1080.95 319.751 1081.27 319.665C1081.59 319.58 1081.93 319.624 1082.22 319.79C1082.5 319.955 1082.71 320.227 1082.8 320.546C1082.88 320.865 1082.84 321.205 1082.67 321.491V321.486Z" fill="white"/>
<path d="M1029.73 313.415C1030.76 315.547 1030.96 317.983 1030.31 320.258C1029.77 322.202 1029.84 324.264 1030.51 326.168C1031.18 328.072 1032.41 329.726 1034.04 330.909C1035.15 331.714 1036.42 332.282 1037.76 332.578L1040.31 333.166C1040.49 333.208 1040.68 333.208 1040.87 333.166L1043.42 332.578C1044.76 332.284 1046.02 331.719 1047.13 330.918C1048.77 329.734 1050 328.08 1050.67 326.176C1051.34 324.272 1051.41 322.209 1050.87 320.264C1050.21 317.989 1050.42 315.553 1051.45 313.421L1051.58 313.161C1051.76 312.797 1051.83 312.389 1051.78 311.986C1051.73 311.584 1051.56 311.204 1051.3 310.895C1051.04 310.586 1050.69 310.361 1050.3 310.247C1049.91 310.133 1049.5 310.136 1049.11 310.255L1048.57 310.421C1047.52 310.743 1046.42 310.905 1045.32 310.903C1043.86 310.899 1042.41 310.609 1041.06 310.049C1040.91 309.986 1040.75 309.954 1040.59 309.954C1040.42 309.954 1040.26 309.986 1040.11 310.049C1038.76 310.608 1037.32 310.898 1035.86 310.903C1034.76 310.903 1033.66 310.738 1032.61 310.415L1032.07 310.249C1031.68 310.13 1031.27 310.127 1030.88 310.241C1030.49 310.354 1030.14 310.58 1029.88 310.889C1029.62 311.198 1029.45 311.577 1029.4 311.98C1029.35 312.382 1029.42 312.791 1029.6 313.154L1029.73 313.415ZM1035.85 313.393C1037.47 313.389 1039.07 313.099 1040.59 312.536C1042.1 313.099 1043.71 313.389 1045.32 313.393C1046.55 313.392 1047.76 313.224 1048.94 312.895C1047.88 315.436 1047.71 318.262 1048.46 320.912C1048.87 322.371 1048.81 323.92 1048.31 325.348C1047.81 326.777 1046.88 328.018 1045.65 328.904C1044.81 329.506 1043.86 329.93 1042.85 330.151L1040.58 330.674L1038.31 330.151C1037.31 329.929 1036.36 329.504 1035.53 328.904C1034.3 328.018 1033.37 326.777 1032.87 325.348C1032.36 323.919 1032.31 322.37 1032.71 320.91C1033.46 318.26 1033.29 315.435 1032.23 312.893C1033.41 313.223 1034.63 313.391 1035.86 313.393H1035.85Z" fill="white"/>
<path d="M1034.06 337.264C1034.06 337.428 1034.09 337.59 1034.15 337.741C1034.22 337.892 1034.31 338.03 1034.42 338.145C1034.54 338.261 1034.68 338.353 1034.83 338.415C1034.98 338.478 1035.14 338.51 1035.3 338.51H1061.34C1061.67 338.51 1061.99 338.378 1062.22 338.145C1062.45 337.911 1062.59 337.595 1062.59 337.264C1062.59 336.934 1062.45 336.617 1062.22 336.384C1061.99 336.15 1061.67 336.019 1061.34 336.019H1035.3C1034.97 336.019 1034.66 336.15 1034.42 336.384C1034.19 336.617 1034.06 336.934 1034.06 337.264Z" fill="white"/>
<path d="M1018.18 338.508H1027.28C1027.61 338.508 1027.93 338.377 1028.16 338.143C1028.39 337.91 1028.52 337.593 1028.52 337.263C1028.52 336.932 1028.39 336.616 1028.16 336.382C1027.93 336.149 1027.61 336.018 1027.28 336.018H1018.18C1017.85 336.018 1017.53 336.149 1017.3 336.382C1017.06 336.616 1016.93 336.932 1016.93 337.263C1016.93 337.593 1017.06 337.91 1017.3 338.143C1017.53 338.377 1017.85 338.508 1018.18 338.508Z" fill="white"/>
<path d="M1018.18 346.809H1056.36C1056.69 346.809 1057.01 346.677 1057.24 346.444C1057.47 346.21 1057.61 345.894 1057.61 345.563C1057.61 345.233 1057.47 344.917 1057.24 344.683C1057.01 344.45 1056.69 344.318 1056.36 344.318H1018.18C1017.85 344.318 1017.53 344.45 1017.3 344.683C1017.06 344.917 1016.93 345.233 1016.93 345.563C1016.93 345.894 1017.06 346.21 1017.3 346.444C1017.53 346.677 1017.85 346.809 1018.18 346.809Z" fill="white"/>
<path d="M1018.18 355.109H1053.04C1053.37 355.109 1053.69 354.978 1053.92 354.745C1054.15 354.511 1054.29 354.194 1054.29 353.864C1054.29 353.534 1054.15 353.217 1053.92 352.984C1053.69 352.75 1053.37 352.619 1053.04 352.619H1018.18C1017.85 352.619 1017.53 352.75 1017.3 352.984C1017.06 353.217 1016.93 353.534 1016.93 353.864C1016.93 354.194 1017.06 354.511 1017.3 354.745C1017.53 354.978 1017.85 355.109 1018.18 355.109Z" fill="white"/>
<path d="M1049.72 360.92H1018.18C1017.85 360.92 1017.53 361.051 1017.3 361.285C1017.06 361.518 1016.93 361.835 1016.93 362.165C1016.93 362.495 1017.06 362.812 1017.3 363.045C1017.53 363.279 1017.85 363.41 1018.18 363.41H1049.72C1050.05 363.41 1050.37 363.279 1050.6 363.045C1050.83 362.812 1050.97 362.495 1050.97 362.165C1050.97 361.835 1050.83 361.518 1050.6 361.285C1050.37 361.051 1050.05 360.92 1049.72 360.92Z" fill="white"/>
<path d="M1031.46 369.221H1018.18C1017.85 369.221 1017.53 369.352 1017.3 369.585C1017.06 369.819 1016.93 370.136 1016.93 370.466C1016.93 370.796 1017.06 371.113 1017.3 371.346C1017.53 371.58 1017.85 371.711 1018.18 371.711H1031.46C1031.79 371.711 1032.11 371.58 1032.34 371.346C1032.57 371.113 1032.7 370.796 1032.7 370.466C1032.7 370.136 1032.57 369.819 1032.34 369.585C1032.11 369.352 1031.79 369.221 1031.46 369.221Z" fill="white"/>
<path d="M1049.72 369.221H1036.44C1036.11 369.221 1035.79 369.352 1035.56 369.585C1035.32 369.819 1035.19 370.136 1035.19 370.466C1035.19 370.796 1035.32 371.113 1035.56 371.346C1035.79 371.58 1036.11 371.711 1036.44 371.711H1049.72C1050.05 371.711 1050.37 371.58 1050.6 371.346C1050.83 371.113 1050.97 370.796 1050.97 370.466C1050.97 370.136 1050.83 369.819 1050.6 369.585C1050.37 369.352 1050.05 369.221 1049.72 369.221Z" fill="white"/>
</g>
<path d="M931 442.852V445.79H923.434V450.444H929.232V453.33H923.434V461H919.794V442.852H931ZM939.977 461.234C938.59 461.234 937.342 460.931 936.233 460.324C935.124 459.7 934.248 458.825 933.607 457.698C932.983 456.571 932.671 455.271 932.671 453.798C932.671 452.325 932.992 451.025 933.633 449.898C934.292 448.771 935.184 447.905 936.311 447.298C937.438 446.674 938.694 446.362 940.081 446.362C941.468 446.362 942.724 446.674 943.851 447.298C944.978 447.905 945.862 448.771 946.503 449.898C947.162 451.025 947.491 452.325 947.491 453.798C947.491 455.271 947.153 456.571 946.477 457.698C945.818 458.825 944.917 459.7 943.773 460.324C942.646 460.931 941.381 461.234 939.977 461.234ZM939.977 458.062C940.636 458.062 941.251 457.906 941.823 457.594C942.412 457.265 942.88 456.779 943.227 456.138C943.574 455.497 943.747 454.717 943.747 453.798C943.747 452.429 943.383 451.38 942.655 450.652C941.944 449.907 941.069 449.534 940.029 449.534C938.989 449.534 938.114 449.907 937.403 450.652C936.71 451.38 936.363 452.429 936.363 453.798C936.363 455.167 936.701 456.225 937.377 456.97C938.07 457.698 938.937 458.062 939.977 458.062ZM953.801 448.832C954.269 448.069 954.876 447.471 955.621 447.038C956.384 446.605 957.251 446.388 958.221 446.388V450.21H957.259C956.115 450.21 955.249 450.479 954.659 451.016C954.087 451.553 953.801 452.489 953.801 453.824V461H950.161V446.596H953.801V448.832ZM978.561 446.388C980.329 446.388 981.75 446.934 982.825 448.026C983.917 449.101 984.463 450.609 984.463 452.55V461H980.823V453.044C980.823 451.917 980.537 451.059 979.965 450.47C979.393 449.863 978.613 449.56 977.625 449.56C976.637 449.56 975.848 449.863 975.259 450.47C974.687 451.059 974.401 451.917 974.401 453.044V461H970.761V453.044C970.761 451.917 970.475 451.059 969.903 450.47C969.331 449.863 968.551 449.56 967.563 449.56C966.558 449.56 965.76 449.863 965.171 450.47C964.599 451.059 964.313 451.917 964.313 453.044V461H960.673V446.596H964.313V448.338C964.781 447.731 965.379 447.255 966.107 446.908C966.852 446.561 967.667 446.388 968.551 446.388C969.678 446.388 970.683 446.631 971.567 447.116C972.451 447.584 973.136 448.26 973.621 449.144C974.089 448.312 974.765 447.645 975.649 447.142C976.55 446.639 977.521 446.388 978.561 446.388ZM986.981 453.746C986.981 452.29 987.267 450.999 987.839 449.872C988.428 448.745 989.217 447.879 990.205 447.272C991.21 446.665 992.328 446.362 993.559 446.362C994.634 446.362 995.57 446.579 996.367 447.012C997.182 447.445 997.832 447.991 998.317 448.65V446.596H1001.98V461H998.317V458.894C997.849 459.57 997.199 460.133 996.367 460.584C995.552 461.017 994.608 461.234 993.533 461.234C992.32 461.234 991.21 460.922 990.205 460.298C989.217 459.674 988.428 458.799 987.839 457.672C987.267 456.528 986.981 455.219 986.981 453.746ZM998.317 453.798C998.317 452.914 998.144 452.16 997.797 451.536C997.45 450.895 996.982 450.409 996.393 450.08C995.804 449.733 995.171 449.56 994.495 449.56C993.819 449.56 993.195 449.725 992.623 450.054C992.051 450.383 991.583 450.869 991.219 451.51C990.872 452.134 990.699 452.879 990.699 453.746C990.699 454.613 990.872 455.375 991.219 456.034C991.583 456.675 992.051 457.169 992.623 457.516C993.212 457.863 993.836 458.036 994.495 458.036C995.171 458.036 995.804 457.871 996.393 457.542C996.982 457.195 997.45 456.71 997.797 456.086C998.144 455.445 998.317 454.682 998.317 453.798ZM1009.18 441.76V461H1005.54V441.76H1009.18ZM1014.62 444.88C1013.98 444.88 1013.44 444.681 1013.01 444.282C1012.59 443.866 1012.38 443.355 1012.38 442.748C1012.38 442.141 1012.59 441.639 1013.01 441.24C1013.44 440.824 1013.98 440.616 1014.62 440.616C1015.26 440.616 1015.79 440.824 1016.21 441.24C1016.64 441.639 1016.86 442.141 1016.86 442.748C1016.86 443.355 1016.64 443.866 1016.21 444.282C1015.79 444.681 1015.26 444.88 1014.62 444.88ZM1016.41 446.596V461H1012.77V446.596H1016.41ZM1023.34 458.01H1029.76V461H1019.2V458.062L1025.5 449.586H1019.23V446.596H1029.68V449.534L1023.34 458.01ZM1045.97 453.486C1045.97 454.006 1045.93 454.474 1045.87 454.89H1035.34C1035.42 455.93 1035.79 456.745 1036.43 457.334C1037.07 457.923 1037.86 458.218 1038.79 458.218C1040.15 458.218 1041.11 457.637 1041.68 456.476H1045.61C1045.19 457.863 1044.39 459.007 1043.21 459.908C1042.03 460.792 1040.59 461.234 1038.87 461.234C1037.48 461.234 1036.24 460.931 1035.13 460.324C1034.04 459.7 1033.18 458.825 1032.55 457.698C1031.95 456.571 1031.64 455.271 1031.64 453.798C1031.64 452.307 1031.95 450.999 1032.55 449.872C1033.16 448.745 1034.01 447.879 1035.1 447.272C1036.19 446.665 1037.45 446.362 1038.87 446.362C1040.24 446.362 1041.46 446.657 1042.54 447.246C1043.63 447.835 1044.47 448.676 1045.06 449.768C1045.67 450.843 1045.97 452.082 1045.97 453.486ZM1042.2 452.446C1042.18 451.51 1041.84 450.765 1041.19 450.21C1040.53 449.638 1039.72 449.352 1038.77 449.352C1037.87 449.352 1037.1 449.629 1036.48 450.184C1035.87 450.721 1035.5 451.475 1035.36 452.446H1042.2ZM1064.18 461L1060.18 453.928H1058.46V461H1054.82V442.852H1061.63C1063.04 442.852 1064.23 443.103 1065.22 443.606C1066.21 444.091 1066.95 444.759 1067.43 445.608C1067.93 446.44 1068.19 447.376 1068.19 448.416C1068.19 449.612 1067.84 450.695 1067.15 451.666C1066.45 452.619 1065.42 453.278 1064.05 453.642L1068.39 461H1064.18ZM1058.46 451.198H1061.5C1062.49 451.198 1063.23 450.964 1063.71 450.496C1064.2 450.011 1064.44 449.343 1064.44 448.494C1064.44 447.662 1064.2 447.021 1063.71 446.57C1063.23 446.102 1062.49 445.868 1061.5 445.868H1058.46V451.198ZM1084.87 453.486C1084.87 454.006 1084.83 454.474 1084.76 454.89H1074.23C1074.32 455.93 1074.68 456.745 1075.33 457.334C1075.97 457.923 1076.76 458.218 1077.69 458.218C1079.04 458.218 1080.01 457.637 1080.58 456.476H1084.5C1084.09 457.863 1083.29 459.007 1082.11 459.908C1080.93 460.792 1079.49 461.234 1077.77 461.234C1076.38 461.234 1075.13 460.931 1074.03 460.324C1072.93 459.7 1072.08 458.825 1071.45 457.698C1070.84 456.571 1070.54 455.271 1070.54 453.798C1070.54 452.307 1070.84 450.999 1071.45 449.872C1072.06 448.745 1072.91 447.879 1074 447.272C1075.09 446.665 1076.35 446.362 1077.77 446.362C1079.14 446.362 1080.36 446.657 1081.44 447.246C1082.53 447.835 1083.37 448.676 1083.96 449.768C1084.56 450.843 1084.87 452.082 1084.87 453.486ZM1081.1 452.446C1081.08 451.51 1080.74 450.765 1080.08 450.21C1079.42 449.638 1078.62 449.352 1077.67 449.352C1076.76 449.352 1076 449.629 1075.38 450.184C1074.77 450.721 1074.4 451.475 1074.26 452.446H1081.1ZM1091.76 449.586V456.554C1091.76 457.039 1091.88 457.395 1092.1 457.62C1092.34 457.828 1092.74 457.932 1093.3 457.932H1094.99V461H1092.7C1089.63 461 1088.1 459.509 1088.1 456.528V449.586H1086.38V446.596H1088.1V443.034H1091.76V446.596H1094.99V449.586H1091.76ZM1110.99 453.486C1110.99 454.006 1110.96 454.474 1110.89 454.89H1100.36C1100.45 455.93 1100.81 456.745 1101.45 457.334C1102.09 457.923 1102.88 458.218 1103.82 458.218C1105.17 458.218 1106.13 457.637 1106.7 456.476H1110.63C1110.21 457.863 1109.42 459.007 1108.24 459.908C1107.06 460.792 1105.61 461.234 1103.9 461.234C1102.51 461.234 1101.26 460.931 1100.15 460.324C1099.06 459.7 1098.2 458.825 1097.58 457.698C1096.97 456.571 1096.67 455.271 1096.67 453.798C1096.67 452.307 1096.97 450.999 1097.58 449.872C1098.19 448.745 1099.03 447.879 1100.13 447.272C1101.22 446.665 1102.48 446.362 1103.9 446.362C1105.27 446.362 1106.49 446.657 1107.56 447.246C1108.65 447.835 1109.5 448.676 1110.08 449.768C1110.69 450.843 1110.99 452.082 1110.99 453.486ZM1107.22 452.446C1107.21 451.51 1106.87 450.765 1106.21 450.21C1105.55 449.638 1104.75 449.352 1103.79 449.352C1102.89 449.352 1102.13 449.629 1101.5 450.184C1100.9 450.721 1100.53 451.475 1100.39 452.446H1107.22ZM1121.63 446.388C1123.35 446.388 1124.74 446.934 1125.79 448.026C1126.85 449.101 1127.38 450.609 1127.38 452.55V461H1123.74V453.044C1123.74 451.9 1123.45 451.025 1122.88 450.418C1122.31 449.794 1121.53 449.482 1120.54 449.482C1119.54 449.482 1118.74 449.794 1118.15 450.418C1117.58 451.025 1117.29 451.9 1117.29 453.044V461H1113.65V446.596H1117.29V448.39C1117.78 447.766 1118.39 447.281 1119.14 446.934C1119.9 446.57 1120.73 446.388 1121.63 446.388ZM1135.08 449.586V456.554C1135.08 457.039 1135.19 457.395 1135.42 457.62C1135.66 457.828 1136.06 457.932 1136.61 457.932H1138.3V461H1136.01C1132.95 461 1131.41 459.509 1131.41 456.528V449.586H1129.7V446.596H1131.41V443.034H1135.08V446.596H1138.3V449.586H1135.08ZM1142.77 444.88C1142.13 444.88 1141.59 444.681 1141.15 444.282C1140.74 443.866 1140.53 443.355 1140.53 442.748C1140.53 442.141 1140.74 441.639 1141.15 441.24C1141.59 440.824 1142.13 440.616 1142.77 440.616C1143.41 440.616 1143.94 440.824 1144.35 441.24C1144.79 441.639 1145 442.141 1145 442.748C1145 443.355 1144.79 443.866 1144.35 444.282C1143.94 444.681 1143.41 444.88 1142.77 444.88ZM1144.56 446.596V461H1140.92V446.596H1144.56ZM1154.55 461.234C1153.17 461.234 1151.92 460.931 1150.81 460.324C1149.7 459.7 1148.82 458.825 1148.18 457.698C1147.56 456.571 1147.25 455.271 1147.25 453.798C1147.25 452.325 1147.57 451.025 1148.21 449.898C1148.87 448.771 1149.76 447.905 1150.89 447.298C1152.01 446.674 1153.27 446.362 1154.66 446.362C1156.04 446.362 1157.3 446.674 1158.43 447.298C1159.55 447.905 1160.44 448.771 1161.08 449.898C1161.74 451.025 1162.07 452.325 1162.07 453.798C1162.07 455.271 1161.73 456.571 1161.05 457.698C1160.39 458.825 1159.49 459.7 1158.35 460.324C1157.22 460.931 1155.96 461.234 1154.55 461.234ZM1154.55 458.062C1155.21 458.062 1155.83 457.906 1156.4 457.594C1156.99 457.265 1157.46 456.779 1157.8 456.138C1158.15 455.497 1158.32 454.717 1158.32 453.798C1158.32 452.429 1157.96 451.38 1157.23 450.652C1156.52 449.907 1155.65 449.534 1154.61 449.534C1153.57 449.534 1152.69 449.907 1151.98 450.652C1151.29 451.38 1150.94 452.429 1150.94 453.798C1150.94 455.167 1151.28 456.225 1151.95 456.97C1152.65 457.698 1153.51 458.062 1154.55 458.062ZM1172.72 446.388C1174.44 446.388 1175.82 446.934 1176.88 448.026C1177.94 449.101 1178.47 450.609 1178.47 452.55V461H1174.83V453.044C1174.83 451.9 1174.54 451.025 1173.97 450.418C1173.4 449.794 1172.62 449.482 1171.63 449.482C1170.62 449.482 1169.82 449.794 1169.24 450.418C1168.66 451.025 1168.38 451.9 1168.38 453.044V461H1164.74V446.596H1168.38V448.39C1168.86 447.766 1169.48 447.281 1170.22 446.934C1170.99 446.57 1171.82 446.388 1172.72 446.388Z" fill="#3A3A38"/>
<rect width="142.809" height="148.679" transform="translate(345 272)" fill="#085AA3"/>
<g clip-path="url(#clip1_22_827)">
<path d="M454.339 314.962H446.702V308.405C446.701 307.194 446.219 306.034 445.363 305.178C444.507 304.323 443.347 303.841 442.137 303.839H390.672C389.462 303.841 388.302 304.323 387.446 305.178C386.59 306.034 386.108 307.194 386.107 308.405V314.962H378.47C377.26 314.964 376.099 315.446 375.244 316.302C374.388 317.157 373.906 318.318 373.905 319.528V366.012C373.906 367.222 374.388 368.383 375.244 369.239C376.099 370.094 377.26 370.576 378.47 370.578H404.793L402.184 379.708H394.823C393.612 379.708 392.45 380.189 391.594 381.046C390.738 381.902 390.257 383.063 390.257 384.274C390.257 385.485 390.738 386.646 391.594 387.502C392.45 388.358 393.612 388.839 394.823 388.839H437.987C439.197 388.839 440.359 388.358 441.215 387.502C442.071 386.646 442.552 385.485 442.552 384.274C442.552 383.063 442.071 381.902 441.215 381.046C440.359 380.189 439.197 379.708 437.987 379.708H430.625L428.016 370.578H454.339C455.549 370.576 456.71 370.094 457.565 369.239C458.421 368.383 458.903 367.222 458.905 366.012V319.528C458.903 318.318 458.421 317.157 457.565 316.302C456.71 315.446 455.549 314.964 454.339 314.962ZM388.597 308.405C388.598 307.855 388.817 307.327 389.206 306.938C389.595 306.549 390.122 306.33 390.672 306.33H442.137C442.687 306.33 443.214 306.549 443.603 306.938C443.992 307.327 444.211 307.855 444.212 308.405V348.249C444.211 348.799 443.992 349.326 443.603 349.715C443.214 350.104 442.687 350.323 442.137 350.324H390.672C390.122 350.323 389.595 350.104 389.206 349.715C388.817 349.326 388.598 348.799 388.597 348.249V308.405ZM378.47 317.453H386.107V348.249C386.108 349.459 386.59 350.619 387.446 351.475C388.302 352.331 389.462 352.812 390.672 352.814H442.137C443.347 352.812 444.507 352.331 445.363 351.475C446.219 350.619 446.701 349.459 446.702 348.249V317.453H454.339C454.889 317.454 455.417 317.672 455.806 318.061C456.195 318.45 456.413 318.978 456.414 319.528V358.126H376.395V319.528C376.396 318.978 376.615 318.45 377.004 318.061C377.393 317.672 377.92 317.454 378.47 317.453ZM440.062 384.274C440.061 384.824 439.842 385.351 439.453 385.74C439.064 386.129 438.537 386.348 437.987 386.349H394.823C394.272 386.349 393.744 386.13 393.355 385.741C392.966 385.352 392.747 384.824 392.747 384.274C392.747 383.724 392.966 383.196 393.355 382.807C393.744 382.417 394.272 382.199 394.823 382.199H437.987C438.537 382.2 439.064 382.419 439.453 382.808C439.842 383.196 440.061 383.724 440.062 384.274ZM428.036 379.708H404.773L407.383 370.578H425.426L428.036 379.708ZM454.339 368.087H378.47C377.92 368.087 377.393 367.868 377.004 367.479C376.615 367.09 376.396 366.562 376.395 366.012V360.617H456.414V366.012C456.413 366.562 456.195 367.09 455.806 367.479C455.417 367.868 454.889 368.087 454.339 368.087Z" fill="white"/>
<path d="M399.624 337.624H401.284C402.934 337.621 404.517 336.965 405.684 335.798C406.851 334.631 407.507 333.048 407.509 331.398C407.509 331.142 407.43 330.893 407.284 330.684L401.77 322.808L402.018 321.449C403.156 321.253 404.217 320.745 405.082 319.98C405.948 319.216 406.584 318.226 406.918 317.121H411.155C411.423 318.24 412.04 319.245 412.918 319.989L410.338 338.703H405.614C404.623 338.703 403.673 339.096 402.972 339.797C402.272 340.497 401.878 341.447 401.878 342.438C401.878 343.429 402.272 344.379 402.972 345.079C403.673 345.78 404.623 346.173 405.614 346.173H427.196C428.186 346.173 429.136 345.78 429.837 345.079C430.537 344.379 430.931 343.429 430.931 342.438C430.931 341.447 430.537 340.497 429.837 339.797C429.136 339.096 428.186 338.703 427.196 338.703H422.471L419.891 319.989C420.769 319.245 421.387 318.24 421.654 317.121H425.891C426.226 318.226 426.861 319.216 427.727 319.98C428.592 320.745 429.653 321.253 430.792 321.449L431.039 322.808L425.525 330.684C425.379 330.893 425.3 331.142 425.3 331.398C425.302 333.048 425.959 334.631 427.126 335.798C428.293 336.965 429.875 337.621 431.525 337.624H433.185C434.836 337.622 436.419 336.965 437.586 335.798C438.753 334.631 439.409 333.049 439.411 331.398C439.412 331.142 439.333 330.893 439.185 330.684L433.531 322.607L433.073 320.071C433.02 319.783 432.868 319.524 432.644 319.337C432.419 319.15 432.136 319.048 431.844 319.048C430.925 319.049 430.038 318.71 429.353 318.098C428.668 317.485 428.233 316.641 428.132 315.728C428.096 315.426 427.951 315.148 427.724 314.946C427.497 314.744 427.204 314.631 426.9 314.63H421.654C421.373 313.449 420.703 312.397 419.75 311.644C418.797 310.891 417.619 310.482 416.405 310.482C415.19 310.482 414.012 310.891 413.059 311.644C412.107 312.397 411.436 313.449 411.155 314.63H405.909C405.603 314.63 405.308 314.743 405.08 314.947C404.852 315.15 404.707 315.431 404.672 315.734C404.571 316.648 404.136 317.492 403.451 318.104C402.766 318.717 401.879 319.055 400.96 319.055C400.669 319.055 400.386 319.157 400.162 319.344C399.939 319.531 399.787 319.791 399.735 320.077L399.277 322.614L393.622 330.684C393.475 330.893 393.396 331.142 393.396 331.398C393.398 333.049 394.055 334.632 395.222 335.799C396.39 336.966 397.973 337.622 399.624 337.624ZM432.355 325.269L435.775 330.153H428.937L432.355 325.269ZM433.185 335.133H431.525C430.753 335.132 430 334.893 429.37 334.447C428.739 334.001 428.262 333.371 428.004 332.643H436.708C436.45 333.371 435.972 334.001 435.342 334.447C434.711 334.892 433.958 335.132 433.185 335.133ZM428.441 342.438C428.441 342.768 428.31 343.085 428.076 343.318C427.843 343.552 427.526 343.683 427.196 343.683H405.614C405.283 343.683 404.967 343.552 404.733 343.318C404.5 343.085 404.368 342.768 404.368 342.438C404.368 342.108 404.5 341.791 404.733 341.558C404.967 341.324 405.283 341.193 405.614 341.193H427.196C427.526 341.193 427.843 341.324 428.076 341.558C428.31 341.791 428.441 342.108 428.441 342.438ZM419.956 338.703H412.854L415.274 321.151C416.019 321.311 416.79 321.311 417.535 321.151L419.956 338.703ZM416.405 312.97C416.979 312.97 417.541 313.141 418.019 313.46C418.496 313.779 418.869 314.233 419.089 314.764C419.309 315.295 419.366 315.879 419.254 316.442C419.142 317.006 418.865 317.524 418.459 317.93C418.053 318.336 417.535 318.613 416.971 318.725C416.408 318.837 415.824 318.78 415.293 318.56C414.762 318.34 414.308 317.967 413.989 317.49C413.67 317.012 413.499 316.45 413.499 315.876C413.5 315.105 413.807 314.367 414.351 313.822C414.896 313.277 415.634 312.971 416.405 312.97ZM401.284 335.133H399.624C398.851 335.132 398.098 334.892 397.468 334.447C396.837 334.001 396.359 333.371 396.101 332.643H404.805C404.547 333.371 404.07 334.001 403.439 334.446C402.809 334.892 402.056 335.132 401.284 335.133ZM397.034 330.153L400.454 325.269L403.872 330.153H397.034Z" fill="white"/>
</g>
<path d="M629.492 172.852C631.399 172.852 633.072 173.225 634.51 173.97C635.966 174.715 637.084 175.781 637.864 177.168C638.662 178.537 639.06 180.132 639.06 181.952C639.06 183.772 638.662 185.367 637.864 186.736C637.084 188.088 635.966 189.137 634.51 189.882C633.072 190.627 631.399 191 629.492 191H623.148V172.852H629.492ZM629.362 187.906C631.269 187.906 632.742 187.386 633.782 186.346C634.822 185.306 635.342 183.841 635.342 181.952C635.342 180.063 634.822 178.589 633.782 177.532C632.742 176.457 631.269 175.92 629.362 175.92H626.788V187.906H629.362ZM655.175 183.486C655.175 184.006 655.141 184.474 655.071 184.89H644.541C644.628 185.93 644.992 186.745 645.633 187.334C646.275 187.923 647.063 188.218 647.999 188.218C649.351 188.218 650.313 187.637 650.885 186.476H654.811C654.395 187.863 653.598 189.007 652.419 189.908C651.241 190.792 649.793 191.234 648.077 191.234C646.691 191.234 645.443 190.931 644.333 190.324C643.241 189.7 642.383 188.825 641.759 187.698C641.153 186.571 640.849 185.271 640.849 183.798C640.849 182.307 641.153 180.999 641.759 179.872C642.366 178.745 643.215 177.879 644.307 177.272C645.399 176.665 646.656 176.362 648.077 176.362C649.447 176.362 650.669 176.657 651.743 177.246C652.835 177.835 653.676 178.676 654.265 179.768C654.872 180.843 655.175 182.082 655.175 183.486ZM651.405 182.446C651.388 181.51 651.05 180.765 650.391 180.21C649.733 179.638 648.927 179.352 647.973 179.352C647.072 179.352 646.309 179.629 645.685 180.184C645.079 180.721 644.706 181.475 644.567 182.446H651.405ZM663.838 187.646L667.478 176.596H671.352L666.022 191H661.602L656.298 176.596H660.198L663.838 187.646ZM686.787 183.486C686.787 184.006 686.752 184.474 686.683 184.89H676.153C676.239 185.93 676.603 186.745 677.245 187.334C677.886 187.923 678.675 188.218 679.611 188.218C680.963 188.218 681.925 187.637 682.497 186.476H686.423C686.007 187.863 685.209 189.007 684.031 189.908C682.852 190.792 681.405 191.234 679.689 191.234C678.302 191.234 677.054 190.931 675.945 190.324C674.853 189.7 673.995 188.825 673.371 187.698C672.764 186.571 672.461 185.271 672.461 183.798C672.461 182.307 672.764 180.999 673.371 179.872C673.977 178.745 674.827 177.879 675.919 177.272C677.011 176.665 678.267 176.362 679.689 176.362C681.058 176.362 682.28 176.657 683.355 177.246C684.447 177.835 685.287 178.676 685.877 179.768C686.483 180.843 686.787 182.082 686.787 183.486ZM683.017 182.446C682.999 181.51 682.661 180.765 682.003 180.21C681.344 179.638 680.538 179.352 679.585 179.352C678.683 179.352 677.921 179.629 677.297 180.184C676.69 180.721 676.317 181.475 676.179 182.446H683.017ZM693.083 171.76V191H689.443V171.76H693.083ZM703.076 191.234C701.689 191.234 700.441 190.931 699.332 190.324C698.222 189.7 697.347 188.825 696.706 187.698C696.082 186.571 695.77 185.271 695.77 183.798C695.77 182.325 696.09 181.025 696.732 179.898C697.39 178.771 698.283 177.905 699.41 177.298C700.536 176.674 701.793 176.362 703.18 176.362C704.566 176.362 705.823 176.674 706.95 177.298C708.076 177.905 708.96 178.771 709.602 179.898C710.26 181.025 710.59 182.325 710.59 183.798C710.59 185.271 710.252 186.571 709.576 187.698C708.917 188.825 708.016 189.7 706.872 190.324C705.745 190.931 704.48 191.234 703.076 191.234ZM703.076 188.062C703.734 188.062 704.35 187.906 704.922 187.594C705.511 187.265 705.979 186.779 706.326 186.138C706.672 185.497 706.846 184.717 706.846 183.798C706.846 182.429 706.482 181.38 705.754 180.652C705.043 179.907 704.168 179.534 703.128 179.534C702.088 179.534 701.212 179.907 700.502 180.652C699.808 181.38 699.462 182.429 699.462 183.798C699.462 185.167 699.8 186.225 700.476 186.97C701.169 187.698 702.036 188.062 703.076 188.062ZM716.9 178.676C717.368 178.017 718.009 177.471 718.824 177.038C719.656 176.587 720.6 176.362 721.658 176.362C722.888 176.362 723.998 176.665 724.986 177.272C725.991 177.879 726.78 178.745 727.352 179.872C727.941 180.981 728.236 182.273 728.236 183.746C728.236 185.219 727.941 186.528 727.352 187.672C726.78 188.799 725.991 189.674 724.986 190.298C723.998 190.922 722.888 191.234 721.658 191.234C720.6 191.234 719.664 191.017 718.85 190.584C718.052 190.151 717.402 189.605 716.9 188.946V197.864H713.26V176.596H716.9V178.676ZM724.518 183.746C724.518 182.879 724.336 182.134 723.972 181.51C723.625 180.869 723.157 180.383 722.568 180.054C721.996 179.725 721.372 179.56 720.696 179.56C720.037 179.56 719.413 179.733 718.824 180.08C718.252 180.409 717.784 180.895 717.42 181.536C717.073 182.177 716.9 182.931 716.9 183.798C716.9 184.665 717.073 185.419 717.42 186.06C717.784 186.701 718.252 187.195 718.824 187.542C719.413 187.871 720.037 188.036 720.696 188.036C721.372 188.036 721.996 187.863 722.568 187.516C723.157 187.169 723.625 186.675 723.972 186.034C724.336 185.393 724.518 184.63 724.518 183.746ZM736.14 183.746C736.14 182.29 736.426 180.999 736.998 179.872C737.588 178.745 738.376 177.879 739.364 177.272C740.37 176.665 741.488 176.362 742.718 176.362C743.793 176.362 744.729 176.579 745.526 177.012C746.341 177.445 746.991 177.991 747.476 178.65V176.596H751.142V191H747.476V188.894C747.008 189.57 746.358 190.133 745.526 190.584C744.712 191.017 743.767 191.234 742.692 191.234C741.479 191.234 740.37 190.922 739.364 190.298C738.376 189.674 737.588 188.799 736.998 187.672C736.426 186.528 736.14 185.219 736.14 183.746ZM747.476 183.798C747.476 182.914 747.303 182.16 746.956 181.536C746.61 180.895 746.142 180.409 745.552 180.08C744.963 179.733 744.33 179.56 743.654 179.56C742.978 179.56 742.354 179.725 741.782 180.054C741.21 180.383 740.742 180.869 740.378 181.51C740.032 182.134 739.858 182.879 739.858 183.746C739.858 184.613 740.032 185.375 740.378 186.034C740.742 186.675 741.21 187.169 741.782 187.516C742.372 187.863 742.996 188.036 743.654 188.036C744.33 188.036 744.963 187.871 745.552 187.542C746.142 187.195 746.61 186.71 746.956 186.086C747.303 185.445 747.476 184.682 747.476 183.798ZM767.159 191.182C765.893 191.182 764.749 190.965 763.727 190.532C762.721 190.099 761.924 189.475 761.335 188.66C760.745 187.845 760.442 186.883 760.425 185.774H764.325C764.377 186.519 764.637 187.109 765.105 187.542C765.59 187.975 766.249 188.192 767.081 188.192C767.93 188.192 768.597 187.993 769.083 187.594C769.568 187.178 769.811 186.641 769.811 185.982C769.811 185.445 769.646 185.003 769.317 184.656C768.987 184.309 768.571 184.041 768.069 183.85C767.583 183.642 766.907 183.417 766.041 183.174C764.862 182.827 763.9 182.489 763.155 182.16C762.427 181.813 761.794 181.302 761.257 180.626C760.737 179.933 760.477 179.014 760.477 177.87C760.477 176.795 760.745 175.859 761.283 175.062C761.82 174.265 762.574 173.658 763.545 173.242C764.515 172.809 765.625 172.592 766.873 172.592C768.745 172.592 770.261 173.051 771.423 173.97C772.601 174.871 773.251 176.137 773.373 177.766H769.369C769.334 177.142 769.065 176.631 768.563 176.232C768.077 175.816 767.427 175.608 766.613 175.608C765.902 175.608 765.33 175.79 764.897 176.154C764.481 176.518 764.273 177.047 764.273 177.74C764.273 178.225 764.429 178.633 764.741 178.962C765.07 179.274 765.469 179.534 765.937 179.742C766.422 179.933 767.098 180.158 767.965 180.418C769.143 180.765 770.105 181.111 770.851 181.458C771.596 181.805 772.237 182.325 772.775 183.018C773.312 183.711 773.581 184.621 773.581 185.748C773.581 186.719 773.329 187.62 772.827 188.452C772.324 189.284 771.587 189.951 770.617 190.454C769.646 190.939 768.493 191.182 767.159 191.182ZM780.974 179.586V186.554C780.974 187.039 781.087 187.395 781.312 187.62C781.555 187.828 781.954 187.932 782.508 187.932H784.198V191H781.91C778.842 191 777.308 189.509 777.308 186.528V179.586H775.592V176.596H777.308V173.034H780.974V176.596H784.198V179.586H780.974ZM790.456 178.832C790.924 178.069 791.531 177.471 792.276 177.038C793.039 176.605 793.906 176.388 794.876 176.388V180.21H793.914C792.77 180.21 791.904 180.479 791.314 181.016C790.742 181.553 790.456 182.489 790.456 183.824V191H786.816V176.596H790.456V178.832ZM796.392 183.746C796.392 182.29 796.678 180.999 797.25 179.872C797.84 178.745 798.628 177.879 799.616 177.272C800.622 176.665 801.74 176.362 802.97 176.362C804.045 176.362 804.981 176.579 805.778 177.012C806.593 177.445 807.243 177.991 807.728 178.65V176.596H811.394V191H807.728V188.894C807.26 189.57 806.61 190.133 805.778 190.584C804.964 191.017 804.019 191.234 802.944 191.234C801.731 191.234 800.622 190.922 799.616 190.298C798.628 189.674 797.84 188.799 797.25 187.672C796.678 186.528 796.392 185.219 796.392 183.746ZM807.728 183.798C807.728 182.914 807.555 182.16 807.208 181.536C806.862 180.895 806.394 180.409 805.804 180.08C805.215 179.733 804.582 179.56 803.906 179.56C803.23 179.56 802.606 179.725 802.034 180.054C801.462 180.383 800.994 180.869 800.63 181.51C800.284 182.134 800.11 182.879 800.11 183.746C800.11 184.613 800.284 185.375 800.63 186.034C800.994 186.675 801.462 187.169 802.034 187.516C802.624 187.863 803.248 188.036 803.906 188.036C804.582 188.036 805.215 187.871 805.804 187.542C806.394 187.195 806.862 186.71 807.208 186.086C807.555 185.445 807.728 184.682 807.728 183.798ZM819.187 179.586V186.554C819.187 187.039 819.3 187.395 819.525 187.62C819.768 187.828 820.167 187.932 820.721 187.932H822.411V191H820.123C817.055 191 815.521 189.509 815.521 186.528V179.586H813.805V176.596H815.521V173.034H819.187V176.596H822.411V179.586H819.187ZM838.419 183.486C838.419 184.006 838.385 184.474 838.315 184.89H827.785C827.872 185.93 828.236 186.745 828.877 187.334C829.519 187.923 830.307 188.218 831.243 188.218C832.595 188.218 833.557 187.637 834.129 186.476H838.055C837.639 187.863 836.842 189.007 835.663 189.908C834.485 190.792 833.037 191.234 831.321 191.234C829.935 191.234 828.687 190.931 827.577 190.324C826.485 189.7 825.627 188.825 825.003 187.698C824.397 186.571 824.093 185.271 824.093 183.798C824.093 182.307 824.397 180.999 825.003 179.872C825.61 178.745 826.459 177.879 827.551 177.272C828.643 176.665 829.9 176.362 831.321 176.362C832.691 176.362 833.913 176.657 834.987 177.246C836.079 177.835 836.92 178.676 837.509 179.768C838.116 180.843 838.419 182.082 838.419 183.486ZM834.649 182.446C834.632 181.51 834.294 180.765 833.635 180.21C832.977 179.638 832.171 179.352 831.217 179.352C830.316 179.352 829.553 179.629 828.929 180.184C828.323 180.721 827.95 181.475 827.811 182.446H834.649ZM846.718 176.362C847.793 176.362 848.738 176.579 849.552 177.012C850.367 177.428 851.008 177.974 851.476 178.65V176.596H855.142V191.104C855.142 192.439 854.874 193.626 854.336 194.666C853.799 195.723 852.993 196.555 851.918 197.162C850.844 197.786 849.544 198.098 848.018 198.098C845.973 198.098 844.292 197.621 842.974 196.668C841.674 195.715 840.938 194.415 840.764 192.768H844.378C844.569 193.427 844.976 193.947 845.6 194.328C846.242 194.727 847.013 194.926 847.914 194.926C848.972 194.926 849.83 194.605 850.488 193.964C851.147 193.34 851.476 192.387 851.476 191.104V188.868C851.008 189.544 850.358 190.107 849.526 190.558C848.712 191.009 847.776 191.234 846.718 191.234C845.505 191.234 844.396 190.922 843.39 190.298C842.385 189.674 841.588 188.799 840.998 187.672C840.426 186.528 840.14 185.219 840.14 183.746C840.14 182.29 840.426 180.999 840.998 179.872C841.588 178.745 842.376 177.879 843.364 177.272C844.37 176.665 845.488 176.362 846.718 176.362ZM851.476 183.798C851.476 182.914 851.303 182.16 850.956 181.536C850.61 180.895 850.142 180.409 849.552 180.08C848.963 179.733 848.33 179.56 847.654 179.56C846.978 179.56 846.354 179.725 845.782 180.054C845.21 180.383 844.742 180.869 844.378 181.51C844.032 182.134 843.858 182.879 843.858 183.746C843.858 184.613 844.032 185.375 844.378 186.034C844.742 186.675 845.21 187.169 845.782 187.516C846.372 187.863 846.996 188.036 847.654 188.036C848.33 188.036 848.963 187.871 849.552 187.542C850.142 187.195 850.61 186.71 850.956 186.086C851.303 185.445 851.476 184.682 851.476 183.798ZM872.477 176.596L863.559 197.812H859.685L862.805 190.636L857.033 176.596H861.115L864.833 186.658L868.603 176.596H872.477Z" fill="#3A3A38"/>
<rect width="142.809" height="146.679" transform="translate(676)" fill="#085AA3"/>
<g clip-path="url(#clip2_22_827)">
<path d="M745.95 80.9899C746.656 80.9923 747.354 80.8397 747.994 80.5427C748.635 80.2457 749.202 79.8116 749.656 79.2711L750.694 78.0358L754.396 81.1446C755.597 82.1499 757.147 82.6379 758.708 82.5013C760.268 82.3648 761.71 81.6149 762.719 80.4162L776.529 63.9571C777.028 63.3628 777.405 62.6761 777.638 61.9362C777.871 61.1962 777.957 60.4176 777.889 59.6446C777.821 58.8717 777.602 58.1197 777.244 57.4315C776.885 56.7434 776.395 56.1326 775.8 55.634L772.099 52.5209L773.134 51.2856C773.553 50.8008 773.872 50.2375 774.072 49.6285C774.271 49.0194 774.348 48.3768 774.296 47.738C774.245 47.0991 774.068 46.4768 773.774 45.9072C773.48 45.3377 773.076 44.8322 772.585 44.4203C772.094 44.0084 771.526 43.6982 770.914 43.5078C770.302 43.3174 769.658 43.2506 769.02 43.3113C768.382 43.372 767.763 43.5589 767.198 43.8612C766.632 44.1635 766.133 44.5752 765.729 45.0723L764.693 46.3055L744.12 29.0428L745.155 27.8096C745.563 27.3233 745.872 26.7615 746.063 26.156C746.254 25.5506 746.323 24.9135 746.268 24.2811C746.213 23.6487 746.034 23.0333 745.74 22.4702C745.447 21.9071 745.046 21.4072 744.56 20.9991C744.074 20.5909 743.512 20.2826 742.906 20.0916C742.301 19.9007 741.664 19.8308 741.031 19.8861C740.399 19.9414 739.784 20.1206 739.221 20.4137C738.657 20.7068 738.158 21.1079 737.749 21.5942L736.714 22.8295L733.01 19.7229C732.416 19.224 731.729 18.8471 730.989 18.6137C730.249 18.3803 729.471 18.2949 728.698 18.3626C727.925 18.4302 727.173 18.6495 726.484 19.0079C725.796 19.3662 725.186 19.8567 724.687 20.4512L710.881 36.9082C709.875 38.109 709.387 39.6599 709.523 41.2204C709.66 42.7809 710.41 44.2234 711.609 45.2313L715.313 48.3401L714.276 49.5733C713.683 50.2778 713.304 51.1368 713.183 52.0494C713.061 52.962 713.203 53.8902 713.591 54.725C713.979 55.5598 714.597 56.2665 715.373 56.7621C716.149 57.2576 717.05 57.5214 717.971 57.5225C718.115 57.5225 718.257 57.5225 718.401 57.5032C719.033 57.449 719.649 57.2703 720.213 56.9771C720.776 56.684 721.276 56.2823 721.683 55.7951L722.719 54.5598L728.889 59.7397L715.771 75.3739C715.443 75.0993 715.02 74.966 714.595 75.003C714.169 75.0401 713.775 75.2445 713.5 75.5715L692.783 100.253C692.646 100.415 692.544 100.602 692.48 100.804C692.416 101.006 692.393 101.218 692.411 101.429C692.429 101.64 692.489 101.845 692.587 102.033C692.684 102.221 692.818 102.388 692.98 102.524L701.213 109.433C701.504 109.675 701.87 109.808 702.249 109.809C702.296 109.809 702.343 109.809 702.39 109.809C702.601 109.791 702.807 109.731 702.994 109.634C703.182 109.536 703.348 109.402 703.484 109.24L724.201 84.5434C724.476 84.2156 724.609 83.7924 724.571 83.3666C724.534 82.9409 724.329 82.5474 724.002 82.2725L737.122 66.6362L743.292 71.816L742.248 73.0514C741.426 74.0338 741.026 75.3026 741.138 76.5792C741.25 77.8557 741.864 79.0356 742.846 79.8598C743.714 80.5915 744.814 80.9919 745.95 80.9899ZM773.729 58.0961C774 58.3227 774.223 58.6003 774.386 58.9131C774.549 59.2259 774.648 59.5678 774.679 59.9192C774.71 60.2706 774.671 60.6246 774.565 60.961C774.459 61.2974 774.287 61.6095 774.06 61.8795L760.25 78.3387C759.792 78.8838 759.136 79.2248 758.427 79.2868C757.717 79.3488 757.012 79.1268 756.467 78.6696L752.776 75.5608L770.038 54.9895L773.729 58.0961ZM768.197 47.1391C768.474 46.819 768.866 46.6207 769.287 46.5869C769.709 46.5531 770.127 46.6867 770.452 46.9587C770.776 47.2307 770.98 47.6193 771.02 48.0406C771.06 48.4618 770.933 48.882 770.666 49.2102L747.19 77.1936C747.054 77.3557 746.887 77.4894 746.7 77.587C746.512 77.6847 746.307 77.7444 746.096 77.7628C745.886 77.7811 745.673 77.7578 745.472 77.694C745.27 77.6303 745.083 77.5274 744.921 77.3912C744.594 77.1164 744.39 76.7234 744.352 76.2981C744.315 75.8729 744.448 75.4502 744.721 75.1225L768.197 47.1391ZM713.674 42.7627C713.129 42.3046 712.788 41.6488 712.726 40.9395C712.664 40.2301 712.886 39.5252 713.343 38.9793L727.153 22.5223C727.38 22.2519 727.658 22.0288 727.97 21.8659C728.283 21.7029 728.625 21.6032 728.976 21.5724C729.328 21.5417 729.682 21.5806 730.018 21.6868C730.355 21.793 730.667 21.9645 730.937 22.1914L734.643 25.2981L717.38 45.8694L713.674 42.7627ZM719.208 53.7198C719.073 53.8823 718.906 54.0164 718.718 54.1145C718.531 54.2125 718.325 54.2726 718.114 54.2911C717.904 54.3097 717.691 54.2864 717.489 54.2227C717.287 54.1589 717.1 54.0559 716.938 53.9196C716.611 53.6444 716.406 53.2509 716.369 52.8254C716.331 52.3998 716.464 51.9767 716.738 51.6487L740.218 23.6674C740.349 23.4898 740.514 23.3408 740.705 23.2298C740.895 23.1188 741.107 23.0481 741.326 23.0221C741.545 22.996 741.767 23.0152 741.978 23.0784C742.189 23.1416 742.385 23.2475 742.554 23.3895C742.723 23.5315 742.86 23.7066 742.959 23.904C743.057 24.1014 743.114 24.3169 743.125 24.5371C743.137 24.7573 743.103 24.9775 743.026 25.1842C742.949 25.3908 742.831 25.5795 742.678 25.7385L719.208 53.7198ZM702.045 105.927L696.287 101.091L714.929 78.8715L720.689 83.7055L702.045 105.927ZM721.524 80.2057L718.233 77.4428L731.351 61.8086L734.645 64.5694L721.524 80.2057ZM724.784 52.0891L742.046 31.5178L762.618 48.7783L745.355 69.3518L724.784 52.0891Z" fill="white"/>
<path d="M797.571 118.671H795.959V109.541C795.959 109.113 795.789 108.703 795.487 108.401C795.185 108.099 794.775 107.929 794.348 107.929H751.379C750.952 107.929 750.542 108.099 750.24 108.401C749.938 108.703 749.768 109.113 749.768 109.541V118.671H748.156C746.875 118.673 745.646 119.182 744.74 120.088C743.833 120.995 743.324 122.224 743.323 123.505V126.728C743.323 127.155 743.492 127.565 743.794 127.867C744.097 128.17 744.506 128.339 744.934 128.339H800.793C801.221 128.339 801.63 128.17 801.933 127.867C802.235 127.565 802.405 127.155 802.405 126.728V123.505C802.403 122.224 801.893 120.995 800.987 120.089C800.081 119.183 798.852 118.673 797.571 118.671ZM752.99 111.152H792.737V118.671H752.99V111.152ZM799.182 125.117H746.545V123.505C746.545 123.078 746.715 122.668 747.017 122.366C747.319 122.064 747.729 121.894 748.156 121.894H797.571C797.998 121.895 798.407 122.065 798.709 122.367C799.011 122.669 799.181 123.078 799.182 123.505V125.117Z" fill="white"/>
<path d="M790.762 96.3039C790.898 96.4661 791.065 96.5998 791.253 96.6975C791.441 96.7952 791.646 96.8549 791.857 96.8733C792.068 96.8916 792.28 96.8682 792.482 96.8045C792.684 96.7407 792.871 96.6378 793.033 96.5016L799.558 91.0252C799.878 90.7484 800.076 90.3568 800.11 89.9349C800.144 89.5131 800.01 89.0949 799.738 88.7707C799.466 88.4465 799.078 88.2424 798.656 88.2023C798.235 88.1622 797.815 88.2895 797.487 88.5566L790.96 94.033C790.633 94.3082 790.428 94.7018 790.391 95.1276C790.354 95.5533 790.488 95.9764 790.762 96.3039Z" fill="white"/>
<path d="M787.323 93.8311C787.507 93.9038 787.704 93.941 787.903 93.9407C788.228 93.9411 788.546 93.8428 788.815 93.6587C789.083 93.4745 789.29 93.2133 789.407 92.9095L791.836 86.6231C791.991 86.2243 791.98 85.7805 791.807 85.3895C791.634 84.9985 791.313 84.6922 790.914 84.5381C790.515 84.3839 790.071 84.3946 789.68 84.5676C789.289 84.7407 788.983 85.062 788.829 85.4608L786.399 91.7493C786.323 91.9466 786.286 92.1571 786.291 92.3685C786.296 92.58 786.343 92.7884 786.429 92.9818C786.515 93.1751 786.638 93.3497 786.791 93.4954C786.945 93.6412 787.125 93.7552 787.323 93.8311Z" fill="white"/>
<path d="M792.599 100.12C792.671 100.486 792.867 100.816 793.155 101.053C793.443 101.291 793.805 101.421 794.178 101.421C794.283 101.421 794.387 101.411 794.49 101.391L801.103 100.092C801.31 100.051 801.508 99.9696 801.684 99.8524C801.86 99.7353 802.012 99.5846 802.13 99.409C802.248 99.2333 802.33 99.0361 802.372 98.8287C802.414 98.6212 802.414 98.4076 802.373 98.1999C802.333 97.9923 802.251 97.7947 802.134 97.6184C802.017 97.4422 801.866 97.2907 801.691 97.1727C801.515 97.0547 801.318 96.9725 801.11 96.9307C800.903 96.8889 800.689 96.8883 800.482 96.9291L793.869 98.2289C793.45 98.3115 793.081 98.557 792.843 98.9115C792.605 99.266 792.517 99.7005 792.599 100.12Z" fill="white"/>
</g>
<path d="M293.154 461L289.15 453.928H287.434V461H283.794V442.852H290.606C292.01 442.852 293.206 443.103 294.194 443.606C295.182 444.091 295.919 444.759 296.404 445.608C296.907 446.44 297.158 447.376 297.158 448.416C297.158 449.612 296.811 450.695 296.118 451.666C295.425 452.619 294.393 453.278 293.024 453.642L297.366 461H293.154ZM287.434 451.198H290.476C291.464 451.198 292.201 450.964 292.686 450.496C293.171 450.011 293.414 449.343 293.414 448.494C293.414 447.662 293.171 447.021 292.686 446.57C292.201 446.102 291.464 445.868 290.476 445.868H287.434V451.198ZM313.84 453.486C313.84 454.006 313.806 454.474 313.736 454.89H303.206C303.293 455.93 303.657 456.745 304.298 457.334C304.94 457.923 305.728 458.218 306.664 458.218C308.016 458.218 308.978 457.637 309.55 456.476H313.476C313.06 457.863 312.263 459.007 311.084 459.908C309.906 460.792 308.458 461.234 306.742 461.234C305.356 461.234 304.108 460.931 302.998 460.324C301.906 459.7 301.048 458.825 300.424 457.698C299.818 456.571 299.514 455.271 299.514 453.798C299.514 452.307 299.818 450.999 300.424 449.872C301.031 448.745 301.88 447.879 302.972 447.272C304.064 446.665 305.321 446.362 306.742 446.362C308.112 446.362 309.334 446.657 310.408 447.246C311.5 447.835 312.341 448.676 312.93 449.768C313.537 450.843 313.84 452.082 313.84 453.486ZM310.07 452.446C310.053 451.51 309.715 450.765 309.056 450.21C308.398 449.638 307.592 449.352 306.638 449.352C305.737 449.352 304.974 449.629 304.35 450.184C303.744 450.721 303.371 451.475 303.232 452.446H310.07ZM322.503 457.646L326.143 446.596H330.017L324.687 461H320.267L314.963 446.596H318.863L322.503 457.646ZM333.908 444.88C333.266 444.88 332.729 444.681 332.296 444.282C331.88 443.866 331.672 443.355 331.672 442.748C331.672 442.141 331.88 441.639 332.296 441.24C332.729 440.824 333.266 440.616 333.908 440.616C334.549 440.616 335.078 440.824 335.494 441.24C335.927 441.639 336.144 442.141 336.144 442.748C336.144 443.355 335.927 443.866 335.494 444.282C335.078 444.681 334.549 444.88 333.908 444.88ZM335.702 446.596V461H332.062V446.596H335.702ZM352.688 453.486C352.688 454.006 352.653 454.474 352.584 454.89H342.054C342.141 455.93 342.505 456.745 343.146 457.334C343.787 457.923 344.576 458.218 345.512 458.218C346.864 458.218 347.826 457.637 348.398 456.476H352.324C351.908 457.863 351.111 459.007 349.932 459.908C348.753 460.792 347.306 461.234 345.59 461.234C344.203 461.234 342.955 460.931 341.846 460.324C340.754 459.7 339.896 458.825 339.272 457.698C338.665 456.571 338.362 455.271 338.362 453.798C338.362 452.307 338.665 450.999 339.272 449.872C339.879 448.745 340.728 447.879 341.82 447.272C342.912 446.665 344.169 446.362 345.59 446.362C346.959 446.362 348.181 446.657 349.256 447.246C350.348 447.835 351.189 448.676 351.778 449.768C352.385 450.843 352.688 452.082 352.688 453.486ZM348.918 452.446C348.901 451.51 348.563 450.765 347.904 450.21C347.245 449.638 346.439 449.352 345.486 449.352C344.585 449.352 343.822 449.629 343.198 450.184C342.591 450.721 342.219 451.475 342.08 452.446H348.918ZM375.313 446.596L371.101 461H367.175L364.549 450.938L361.923 461H357.971L353.733 446.596H357.425L359.973 457.568L362.729 446.596H366.577L369.281 457.542L371.829 446.596H375.313ZM387.118 458.114H393.098V461H383.478V442.852H387.118V458.114ZM408.801 453.486C408.801 454.006 408.767 454.474 408.697 454.89H398.167C398.254 455.93 398.618 456.745 399.259 457.334C399.901 457.923 400.689 458.218 401.625 458.218C402.977 458.218 403.939 457.637 404.511 456.476H408.437C408.021 457.863 407.224 459.007 406.045 459.908C404.867 460.792 403.419 461.234 401.703 461.234C400.317 461.234 399.069 460.931 397.959 460.324C396.867 459.7 396.009 458.825 395.385 457.698C394.779 456.571 394.475 455.271 394.475 453.798C394.475 452.307 394.779 450.999 395.385 449.872C395.992 448.745 396.841 447.879 397.933 447.272C399.025 446.665 400.282 446.362 401.703 446.362C403.073 446.362 404.295 446.657 405.369 447.246C406.461 447.835 407.302 448.676 407.891 449.768C408.498 450.843 408.801 452.082 408.801 453.486ZM405.031 452.446C405.014 451.51 404.676 450.765 404.017 450.21C403.359 449.638 402.553 449.352 401.599 449.352C400.698 449.352 399.935 449.629 399.311 450.184C398.705 450.721 398.332 451.475 398.193 452.446H405.031ZM417.1 446.362C418.175 446.362 419.119 446.579 419.934 447.012C420.749 447.428 421.39 447.974 421.858 448.65V446.596H425.524V461.104C425.524 462.439 425.255 463.626 424.718 464.666C424.181 465.723 423.375 466.555 422.3 467.162C421.225 467.786 419.925 468.098 418.4 468.098C416.355 468.098 414.673 467.621 413.356 466.668C412.056 465.715 411.319 464.415 411.146 462.768H414.76C414.951 463.427 415.358 463.947 415.982 464.328C416.623 464.727 417.395 464.926 418.296 464.926C419.353 464.926 420.211 464.605 420.87 463.964C421.529 463.34 421.858 462.387 421.858 461.104V458.868C421.39 459.544 420.74 460.107 419.908 460.558C419.093 461.009 418.157 461.234 417.1 461.234C415.887 461.234 414.777 460.922 413.772 460.298C412.767 459.674 411.969 458.799 411.38 457.672C410.808 456.528 410.522 455.219 410.522 453.746C410.522 452.29 410.808 450.999 411.38 449.872C411.969 448.745 412.758 447.879 413.746 447.272C414.751 446.665 415.869 446.362 417.1 446.362ZM421.858 453.798C421.858 452.914 421.685 452.16 421.338 451.536C420.991 450.895 420.523 450.409 419.934 450.08C419.345 449.733 418.712 449.56 418.036 449.56C417.36 449.56 416.736 449.725 416.164 450.054C415.592 450.383 415.124 450.869 414.76 451.51C414.413 452.134 414.24 452.879 414.24 453.746C414.24 454.613 414.413 455.375 414.76 456.034C415.124 456.675 415.592 457.169 416.164 457.516C416.753 457.863 417.377 458.036 418.036 458.036C418.712 458.036 419.345 457.871 419.934 457.542C420.523 457.195 420.991 456.71 421.338 456.086C421.685 455.445 421.858 454.682 421.858 453.798ZM428.143 453.746C428.143 452.29 428.429 450.999 429.001 449.872C429.59 448.745 430.379 447.879 431.367 447.272C432.372 446.665 433.49 446.362 434.721 446.362C435.796 446.362 436.732 446.579 437.529 447.012C438.344 447.445 438.994 447.991 439.479 448.65V446.596H443.145V461H439.479V458.894C439.011 459.57 438.361 460.133 437.529 460.584C436.714 461.017 435.77 461.234 434.695 461.234C433.482 461.234 432.372 460.922 431.367 460.298C430.379 459.674 429.59 458.799 429.001 457.672C428.429 456.528 428.143 455.219 428.143 453.746ZM439.479 453.798C439.479 452.914 439.306 452.16 438.959 451.536C438.612 450.895 438.144 450.409 437.555 450.08C436.966 449.733 436.333 449.56 435.657 449.56C434.981 449.56 434.357 449.725 433.785 450.054C433.213 450.383 432.745 450.869 432.381 451.51C432.034 452.134 431.861 452.879 431.861 453.746C431.861 454.613 432.034 455.375 432.381 456.034C432.745 456.675 433.213 457.169 433.785 457.516C434.374 457.863 434.998 458.036 435.657 458.036C436.333 458.036 436.966 457.871 437.555 457.542C438.144 457.195 438.612 456.71 438.959 456.086C439.306 455.445 439.479 454.682 439.479 453.798ZM450.34 441.76V461H446.7V441.76H450.34ZM468.556 461.182C466.857 461.182 465.297 460.783 463.876 459.986C462.455 459.189 461.328 458.088 460.496 456.684C459.664 455.263 459.248 453.659 459.248 451.874C459.248 450.106 459.664 448.52 460.496 447.116C461.328 445.695 462.455 444.585 463.876 443.788C465.297 442.991 466.857 442.592 468.556 442.592C470.272 442.592 471.832 442.991 473.236 443.788C474.657 444.585 475.775 445.695 476.59 447.116C477.422 448.52 477.838 450.106 477.838 451.874C477.838 453.659 477.422 455.263 476.59 456.684C475.775 458.088 474.657 459.189 473.236 459.986C471.815 460.783 470.255 461.182 468.556 461.182ZM468.556 457.932C469.648 457.932 470.61 457.689 471.442 457.204C472.274 456.701 472.924 455.991 473.392 455.072C473.86 454.153 474.094 453.087 474.094 451.874C474.094 450.661 473.86 449.603 473.392 448.702C472.924 447.783 472.274 447.081 471.442 446.596C470.61 446.111 469.648 445.868 468.556 445.868C467.464 445.868 466.493 446.111 465.644 446.596C464.812 447.081 464.162 447.783 463.694 448.702C463.226 449.603 462.992 450.661 462.992 451.874C462.992 453.087 463.226 454.153 463.694 455.072C464.162 455.991 464.812 456.701 465.644 457.204C466.493 457.689 467.464 457.932 468.556 457.932ZM484.186 448.676C484.654 448.017 485.295 447.471 486.11 447.038C486.942 446.587 487.887 446.362 488.944 446.362C490.175 446.362 491.284 446.665 492.272 447.272C493.277 447.879 494.066 448.745 494.638 449.872C495.227 450.981 495.522 452.273 495.522 453.746C495.522 455.219 495.227 456.528 494.638 457.672C494.066 458.799 493.277 459.674 492.272 460.298C491.284 460.922 490.175 461.234 488.944 461.234C487.887 461.234 486.951 461.017 486.136 460.584C485.339 460.151 484.689 459.605 484.186 458.946V467.864H480.546V446.596H484.186V448.676ZM491.804 453.746C491.804 452.879 491.622 452.134 491.258 451.51C490.911 450.869 490.443 450.383 489.854 450.054C489.282 449.725 488.658 449.56 487.982 449.56C487.323 449.56 486.699 449.733 486.11 450.08C485.538 450.409 485.07 450.895 484.706 451.536C484.359 452.177 484.186 452.931 484.186 453.798C484.186 454.665 484.359 455.419 484.706 456.06C485.07 456.701 485.538 457.195 486.11 457.542C486.699 457.871 487.323 458.036 487.982 458.036C488.658 458.036 489.282 457.863 489.854 457.516C490.443 457.169 490.911 456.675 491.258 456.034C491.622 455.393 491.804 454.63 491.804 453.746ZM502.405 449.586V456.554C502.405 457.039 502.518 457.395 502.743 457.62C502.986 457.828 503.384 457.932 503.939 457.932H505.629V461H503.341C500.273 461 498.739 459.509 498.739 456.528V449.586H497.023V446.596H498.739V443.034H502.405V446.596H505.629V449.586H502.405ZM510.093 444.88C509.452 444.88 508.914 444.681 508.481 444.282C508.065 443.866 507.857 443.355 507.857 442.748C507.857 442.141 508.065 441.639 508.481 441.24C508.914 440.824 509.452 440.616 510.093 440.616C510.734 440.616 511.263 440.824 511.679 441.24C512.112 441.639 512.329 442.141 512.329 442.748C512.329 443.355 512.112 443.866 511.679 444.282C511.263 444.681 510.734 444.88 510.093 444.88ZM511.887 446.596V461H508.247V446.596H511.887ZM521.879 461.234C520.493 461.234 519.245 460.931 518.135 460.324C517.026 459.7 516.151 458.825 515.509 457.698C514.885 456.571 514.573 455.271 514.573 453.798C514.573 452.325 514.894 451.025 515.535 449.898C516.194 448.771 517.087 447.905 518.213 447.298C519.34 446.674 520.597 446.362 521.983 446.362C523.37 446.362 524.627 446.674 525.753 447.298C526.88 447.905 527.764 448.771 528.405 449.898C529.064 451.025 529.393 452.325 529.393 453.798C529.393 455.271 529.055 456.571 528.379 457.698C527.721 458.825 526.819 459.7 525.675 460.324C524.549 460.931 523.283 461.234 521.879 461.234ZM521.879 458.062C522.538 458.062 523.153 457.906 523.725 457.594C524.315 457.265 524.783 456.779 525.129 456.138C525.476 455.497 525.649 454.717 525.649 453.798C525.649 452.429 525.285 451.38 524.557 450.652C523.847 449.907 522.971 449.534 521.931 449.534C520.891 449.534 520.016 449.907 519.305 450.652C518.612 451.38 518.265 452.429 518.265 453.798C518.265 455.167 518.603 456.225 519.279 456.97C519.973 457.698 520.839 458.062 521.879 458.062ZM540.046 446.388C541.762 446.388 543.148 446.934 544.206 448.026C545.263 449.101 545.792 450.609 545.792 452.55V461H542.152V453.044C542.152 451.9 541.866 451.025 541.294 450.418C540.722 449.794 539.942 449.482 538.954 449.482C537.948 449.482 537.151 449.794 536.562 450.418C535.99 451.025 535.704 451.9 535.704 453.044V461H532.064V446.596H535.704V448.39C536.189 447.766 536.804 447.281 537.55 446.934C538.312 446.57 539.144 446.388 540.046 446.388ZM554.765 461.234C553.586 461.234 552.529 461.026 551.593 460.61C550.657 460.177 549.912 459.596 549.357 458.868C548.82 458.14 548.525 457.334 548.473 456.45H552.139C552.208 457.005 552.477 457.464 552.945 457.828C553.43 458.192 554.028 458.374 554.739 458.374C555.432 458.374 555.97 458.235 556.351 457.958C556.75 457.681 556.949 457.325 556.949 456.892C556.949 456.424 556.706 456.077 556.221 455.852C555.753 455.609 554.999 455.349 553.959 455.072C552.884 454.812 552 454.543 551.307 454.266C550.631 453.989 550.042 453.564 549.539 452.992C549.054 452.42 548.811 451.649 548.811 450.678C548.811 449.881 549.036 449.153 549.487 448.494C549.955 447.835 550.614 447.315 551.463 446.934C552.33 446.553 553.344 446.362 554.505 446.362C556.221 446.362 557.59 446.795 558.613 447.662C559.636 448.511 560.199 449.664 560.303 451.12H556.819C556.767 450.548 556.524 450.097 556.091 449.768C555.675 449.421 555.112 449.248 554.401 449.248C553.742 449.248 553.231 449.369 552.867 449.612C552.52 449.855 552.347 450.193 552.347 450.626C552.347 451.111 552.59 451.484 553.075 451.744C553.56 451.987 554.314 452.238 555.337 452.498C556.377 452.758 557.235 453.027 557.911 453.304C558.587 453.581 559.168 454.015 559.653 454.604C560.156 455.176 560.416 455.939 560.433 456.892C560.433 457.724 560.199 458.469 559.731 459.128C559.28 459.787 558.622 460.307 557.755 460.688C556.906 461.052 555.909 461.234 554.765 461.234Z" fill="#3A3A38"/>
<rect width="142.809" height="146.679" transform="translate(71)" fill="#085AA3"/>
<g clip-path="url(#clip3_22_827)">
<path d="M182.689 82.3081C183.011 82.3081 183.32 82.1816 183.548 81.9563C183.776 81.731 183.905 81.4255 183.905 81.1069V74.7007C183.905 74.3821 183.776 74.0766 183.548 73.8513C183.32 73.6261 183.011 73.4995 182.689 73.4995H102.12C101.798 73.4995 101.489 73.6261 101.261 73.8513C101.033 74.0766 100.905 74.3821 100.905 74.7007V81.1069C100.905 81.4255 101.033 81.731 101.261 81.9563C101.489 82.1816 101.798 82.3081 102.12 82.3081H103.904V105.531H102.12C101.798 105.531 101.489 105.657 101.261 105.883C101.033 106.108 100.905 106.413 100.905 106.732V113.138C100.905 113.457 101.033 113.762 101.261 113.988C101.489 114.213 101.798 114.339 102.12 114.339H182.689C183.011 114.339 183.32 114.213 183.548 113.988C183.776 113.762 183.905 113.457 183.905 113.138V106.732C183.905 106.413 183.776 106.108 183.548 105.883C183.32 105.657 183.011 105.531 182.689 105.531H180.906V82.3081H182.689ZM103.336 75.9019H181.473V79.9058H103.336V75.9019ZM181.473 111.937H103.336V107.933H181.473V111.937ZM178.474 105.531H106.335V82.3081H178.474V105.531Z" fill="white"/>
<path d="M106.74 68.3744H135.92C136.672 68.3736 137.393 68.078 137.925 67.5526C138.457 67.0271 138.756 66.3148 138.757 65.5717C138.752 61.913 137.57 58.3507 135.381 55.3997C133.192 52.4487 130.109 50.262 126.579 49.1557C128.226 48.0472 129.47 46.4466 130.128 44.5887C130.786 42.7308 130.825 40.7134 130.238 38.8323C129.651 36.9512 128.469 35.3054 126.866 34.1364C125.263 32.9674 123.323 32.3367 121.33 32.3367C119.338 32.3367 117.398 32.9674 115.795 34.1364C114.192 35.3054 113.01 36.9512 112.423 38.8323C111.836 40.7134 111.874 42.7308 112.533 44.5887C113.191 46.4466 114.435 48.0472 116.081 49.1557C112.551 50.262 109.469 52.4487 107.28 55.3997C105.091 58.3507 103.908 61.913 103.904 65.5717C103.904 66.3148 104.204 67.0271 104.735 67.5526C105.267 68.078 105.988 68.3736 106.74 68.3744ZM114.441 41.5482C114.441 40.202 114.845 38.886 115.602 37.7667C116.359 36.6473 117.435 35.7749 118.694 35.2597C119.953 34.7445 121.338 34.6098 122.674 34.8724C124.011 35.135 125.239 35.7833 126.202 36.7352C127.166 37.6871 127.822 38.9 128.088 40.2203C128.353 41.5407 128.217 42.9093 127.696 44.153C127.174 45.3968 126.291 46.4598 125.158 47.2078C124.025 47.9557 122.693 48.3549 121.33 48.3549C119.504 48.3528 117.753 47.635 116.461 46.3589C115.169 45.0829 114.443 43.3528 114.441 41.5482ZM121.33 50.7572C125.306 50.7619 129.117 52.3242 131.928 55.1014C134.739 57.8787 136.321 61.6441 136.325 65.5717C136.325 65.6779 136.283 65.7797 136.207 65.8548C136.131 65.9299 136.028 65.9721 135.92 65.9721H106.74C106.633 65.9721 106.53 65.9299 106.454 65.8548C106.378 65.7797 106.335 65.6779 106.335 65.5717C106.34 61.6441 107.921 57.8787 110.732 55.1014C113.543 52.3242 117.355 50.7619 121.33 50.7572Z" fill="white"/>
<path d="M148.889 68.3744H178.069C178.821 68.3736 179.542 68.078 180.074 67.5526C180.605 67.0271 180.905 66.3148 180.906 65.5717C180.901 61.913 179.718 58.3507 177.529 55.3997C175.34 52.4487 172.258 50.262 168.728 49.1557C170.374 48.0472 171.618 46.4466 172.276 44.5887C172.935 42.7308 172.973 40.7134 172.386 38.8323C171.799 36.9512 170.617 35.3054 169.014 34.1364C167.411 32.9674 165.471 32.3367 163.479 32.3367C161.486 32.3367 159.546 32.9674 157.943 34.1364C156.34 35.3054 155.158 36.9512 154.571 38.8323C153.984 40.7134 154.023 42.7308 154.681 44.5887C155.339 46.4466 156.583 48.0472 158.23 49.1557C154.7 50.262 151.617 52.4487 149.428 55.3997C147.239 58.3507 146.057 61.913 146.052 65.5717C146.053 66.3148 146.352 67.0271 146.884 67.5526C147.416 68.078 148.137 68.3736 148.889 68.3744ZM156.589 41.5482C156.589 40.202 156.993 38.886 157.75 37.7667C158.507 36.6473 159.583 35.7749 160.842 35.2597C162.101 34.7445 163.486 34.6098 164.823 34.8724C166.159 35.135 167.387 35.7833 168.35 36.7352C169.314 37.6871 169.97 38.9 170.236 40.2203C170.502 41.5407 170.365 42.9093 169.844 44.153C169.323 45.3968 168.439 46.4598 167.306 47.2078C166.173 47.9557 164.841 48.3549 163.479 48.3549C161.652 48.3528 159.901 47.635 158.609 46.3589C157.318 45.0829 156.591 43.3528 156.589 41.5482ZM163.479 50.7572C167.454 50.7619 171.266 52.3242 174.077 55.1014C176.888 57.8787 178.469 61.6441 178.474 65.5717C178.474 65.6779 178.431 65.7797 178.355 65.8548C178.279 65.9299 178.176 65.9721 178.069 65.9721H148.889C148.781 65.9721 148.678 65.9299 148.602 65.8548C148.526 65.7797 148.484 65.6779 148.484 65.5717C148.488 61.6441 150.07 57.8787 152.881 55.1014C155.692 52.3242 159.503 50.7619 163.479 50.7572Z" fill="white"/>
<path d="M113.225 102.328C113.547 102.328 113.857 102.201 114.085 101.976C114.313 101.751 114.441 101.445 114.441 101.126V86.7124C114.441 86.3938 114.313 86.0883 114.085 85.863C113.857 85.6378 113.547 85.5112 113.225 85.5112C112.902 85.5112 112.593 85.6378 112.365 85.863C112.137 86.0883 112.009 86.3938 112.009 86.7124V101.126C112.009 101.445 112.137 101.751 112.365 101.976C112.593 102.201 112.902 102.328 113.225 102.328Z" fill="white"/>
<path d="M122.951 102.328C123.274 102.328 123.583 102.201 123.811 101.976C124.039 101.751 124.167 101.445 124.167 101.126V86.7124C124.167 86.3938 124.039 86.0883 123.811 85.863C123.583 85.6378 123.274 85.5112 122.951 85.5112C122.629 85.5112 122.32 85.6378 122.092 85.863C121.864 86.0883 121.736 86.3938 121.736 86.7124V101.126C121.736 101.445 121.864 101.751 122.092 101.976C122.32 102.201 122.629 102.328 122.951 102.328Z" fill="white"/>
<path d="M132.678 102.328C133 102.328 133.31 102.201 133.538 101.976C133.766 101.751 133.894 101.445 133.894 101.126V86.7124C133.894 86.3938 133.766 86.0883 133.538 85.863C133.31 85.6378 133 85.5112 132.678 85.5112C132.356 85.5112 132.046 85.6378 131.818 85.863C131.59 86.0883 131.462 86.3938 131.462 86.7124V101.126C131.462 101.445 131.59 101.751 131.818 101.976C132.046 102.201 132.356 102.328 132.678 102.328Z" fill="white"/>
<path d="M142.405 102.328C142.727 102.328 143.036 102.201 143.264 101.976C143.492 101.751 143.62 101.445 143.62 101.126V86.7124C143.62 86.3938 143.492 86.0883 143.264 85.863C143.036 85.6378 142.727 85.5112 142.405 85.5112C142.082 85.5112 141.773 85.6378 141.545 85.863C141.317 86.0883 141.189 86.3938 141.189 86.7124V101.126C141.189 101.445 141.317 101.751 141.545 101.976C141.773 102.201 142.082 102.328 142.405 102.328Z" fill="white"/>
<path d="M152.131 102.328C152.454 102.328 152.763 102.201 152.991 101.976C153.219 101.751 153.347 101.445 153.347 101.126V86.7124C153.347 86.3938 153.219 86.0883 152.991 85.863C152.763 85.6378 152.454 85.5112 152.131 85.5112C151.809 85.5112 151.499 85.6378 151.271 85.863C151.043 86.0883 150.915 86.3938 150.915 86.7124V101.126C150.915 101.445 151.043 101.751 151.271 101.976C151.499 102.201 151.809 102.328 152.131 102.328Z" fill="white"/>
<path d="M161.858 102.328C162.18 102.328 162.489 102.201 162.717 101.976C162.945 101.751 163.073 101.445 163.073 101.126V86.7124C163.073 86.3938 162.945 86.0883 162.717 85.863C162.489 85.6378 162.18 85.5112 161.858 85.5112C161.535 85.5112 161.226 85.6378 160.998 85.863C160.77 86.0883 160.642 86.3938 160.642 86.7124V101.126C160.642 101.445 160.77 101.751 160.998 101.976C161.226 102.201 161.535 102.328 161.858 102.328Z" fill="white"/>
<path d="M171.584 102.328C171.907 102.328 172.216 102.201 172.444 101.976C172.672 101.751 172.8 101.445 172.8 101.126V86.7124C172.8 86.3938 172.672 86.0883 172.444 85.863C172.216 85.6378 171.907 85.5112 171.584 85.5112C171.262 85.5112 170.953 85.6378 170.725 85.863C170.497 86.0883 170.368 86.3938 170.368 86.7124V101.126C170.368 101.445 170.497 101.751 170.725 101.976C170.953 102.201 171.262 102.328 171.584 102.328Z" fill="white"/>
</g>
<path d="M15.1842 168.852V187H11.5442V168.852H15.1842ZM27.8025 172.388C29.5185 172.388 30.9052 172.934 31.9625 174.026C33.0199 175.101 33.5485 176.609 33.5485 178.55V187H29.9085V179.044C29.9085 177.9 29.6225 177.025 29.0505 176.418C28.4785 175.794 27.6985 175.482 26.7105 175.482C25.7052 175.482 24.9079 175.794 24.3185 176.418C23.7465 177.025 23.4605 177.9 23.4605 179.044V187H19.8205V172.596H23.4605V174.39C23.9459 173.766 24.5612 173.281 25.3065 172.934C26.0692 172.57 26.9012 172.388 27.8025 172.388ZM39.896 170.88C39.2547 170.88 38.7173 170.681 38.284 170.282C37.868 169.866 37.66 169.355 37.66 168.748C37.66 168.141 37.868 167.639 38.284 167.24C38.7173 166.824 39.2547 166.616 39.896 166.616C40.5373 166.616 41.066 166.824 41.482 167.24C41.9153 167.639 42.132 168.141 42.132 168.748C42.132 169.355 41.9153 169.866 41.482 170.282C41.066 170.681 40.5373 170.88 39.896 170.88ZM41.69 172.596V187H38.05V172.596H41.69ZM50.5643 175.586V182.554C50.5643 183.039 50.677 183.395 50.9023 183.62C51.145 183.828 51.5436 183.932 52.0983 183.932H53.7883V187H51.5003C48.4323 187 46.8983 185.509 46.8983 182.528V175.586H45.1823V172.596H46.8983V169.034H50.5643V172.596H53.7883V175.586H50.5643ZM59.2924 170.88C58.6511 170.88 58.1137 170.681 57.6804 170.282C57.2644 169.866 57.0564 169.355 57.0564 168.748C57.0564 168.141 57.2644 167.639 57.6804 167.24C58.1137 166.824 58.6511 166.616 59.2924 166.616C59.9337 166.616 60.4624 166.824 60.8784 167.24C61.3117 167.639 61.5284 168.141 61.5284 168.748C61.5284 169.355 61.3117 169.866 60.8784 170.282C60.4624 170.681 59.9337 170.88 59.2924 170.88ZM61.0864 172.596V187H57.4464V172.596H61.0864ZM64.7867 179.746C64.7867 178.29 65.0727 176.999 65.6447 175.872C66.2341 174.745 67.0227 173.879 68.0107 173.272C69.0161 172.665 70.1341 172.362 71.3647 172.362C72.4394 172.362 73.3754 172.579 74.1727 173.012C74.9874 173.445 75.6374 173.991 76.1227 174.65V172.596H79.7887V187H76.1227V184.894C75.6547 185.57 75.0047 186.133 74.1727 186.584C73.3581 187.017 72.4134 187.234 71.3387 187.234C70.1254 187.234 69.0161 186.922 68.0107 186.298C67.0227 185.674 66.2341 184.799 65.6447 183.672C65.0727 182.528 64.7867 181.219 64.7867 179.746ZM76.1227 179.798C76.1227 178.914 75.9494 178.16 75.6027 177.536C75.2561 176.895 74.7881 176.409 74.1987 176.08C73.6094 175.733 72.9767 175.56 72.3007 175.56C71.6247 175.56 71.0007 175.725 70.4287 176.054C69.8567 176.383 69.3887 176.869 69.0247 177.51C68.6781 178.134 68.5047 178.879 68.5047 179.746C68.5047 180.613 68.6781 181.375 69.0247 182.034C69.3887 182.675 69.8567 183.169 70.4287 183.516C71.0181 183.863 71.6421 184.036 72.3007 184.036C72.9767 184.036 73.6094 183.871 74.1987 183.542C74.7881 183.195 75.2561 182.71 75.6027 182.086C75.9494 181.445 76.1227 180.682 76.1227 179.798ZM88.0238 167.76V187H84.3838V167.76H88.0238ZM99.0115 177.9C99.0115 176.115 99.4101 174.52 100.207 173.116C101.022 171.695 102.123 170.594 103.509 169.814C104.913 169.017 106.482 168.618 108.215 168.618C110.243 168.618 112.02 169.138 113.545 170.178C115.071 171.218 116.137 172.657 116.743 174.494H112.557C112.141 173.627 111.552 172.977 110.789 172.544C110.044 172.111 109.177 171.894 108.189 171.894C107.132 171.894 106.187 172.145 105.355 172.648C104.541 173.133 103.899 173.827 103.431 174.728C102.981 175.629 102.755 176.687 102.755 177.9C102.755 179.096 102.981 180.153 103.431 181.072C103.899 181.973 104.541 182.675 105.355 183.178C106.187 183.663 107.132 183.906 108.189 183.906C109.177 183.906 110.044 183.689 110.789 183.256C111.552 182.805 112.141 182.147 112.557 181.28H116.743C116.137 183.135 115.071 184.582 113.545 185.622C112.037 186.645 110.261 187.156 108.215 187.156C106.482 187.156 104.913 186.766 103.509 185.986C102.123 185.189 101.022 184.088 100.207 182.684C99.4101 181.28 99.0115 179.685 99.0115 177.9ZM127.288 187.234C125.902 187.234 124.654 186.931 123.544 186.324C122.435 185.7 121.56 184.825 120.918 183.698C120.294 182.571 119.982 181.271 119.982 179.798C119.982 178.325 120.303 177.025 120.944 175.898C121.603 174.771 122.496 173.905 123.622 173.298C124.749 172.674 126.006 172.362 127.392 172.362C128.779 172.362 130.036 172.674 131.162 173.298C132.289 173.905 133.173 174.771 133.814 175.898C134.473 177.025 134.802 178.325 134.802 179.798C134.802 181.271 134.464 182.571 133.788 183.698C133.13 184.825 132.228 185.7 131.084 186.324C129.958 186.931 128.692 187.234 127.288 187.234ZM127.288 184.062C127.947 184.062 128.562 183.906 129.134 183.594C129.724 183.265 130.192 182.779 130.538 182.138C130.885 181.497 131.058 180.717 131.058 179.798C131.058 178.429 130.694 177.38 129.966 176.652C129.256 175.907 128.38 175.534 127.34 175.534C126.3 175.534 125.425 175.907 124.714 176.652C124.021 177.38 123.674 178.429 123.674 179.798C123.674 181.167 124.012 182.225 124.688 182.97C125.382 183.698 126.248 184.062 127.288 184.062ZM146.495 172.388C148.211 172.388 149.597 172.934 150.655 174.026C151.712 175.101 152.241 176.609 152.241 178.55V187H148.601V179.044C148.601 177.9 148.315 177.025 147.743 176.418C147.171 175.794 146.391 175.482 145.403 175.482C144.397 175.482 143.6 175.794 143.011 176.418C142.439 177.025 142.153 177.9 142.153 179.044V187H138.513V172.596H142.153V174.39C142.638 173.766 143.253 173.281 143.999 172.934C144.761 172.57 145.593 172.388 146.495 172.388ZM162.254 187.234C161.075 187.234 160.018 187.026 159.082 186.61C158.146 186.177 157.401 185.596 156.846 184.868C156.309 184.14 156.014 183.334 155.962 182.45H159.628C159.697 183.005 159.966 183.464 160.434 183.828C160.919 184.192 161.517 184.374 162.228 184.374C162.921 184.374 163.459 184.235 163.84 183.958C164.239 183.681 164.438 183.325 164.438 182.892C164.438 182.424 164.195 182.077 163.71 181.852C163.242 181.609 162.488 181.349 161.448 181.072C160.373 180.812 159.489 180.543 158.796 180.266C158.12 179.989 157.531 179.564 157.028 178.992C156.543 178.42 156.3 177.649 156.3 176.678C156.3 175.881 156.525 175.153 156.976 174.494C157.444 173.835 158.103 173.315 158.952 172.934C159.819 172.553 160.833 172.362 161.994 172.362C163.71 172.362 165.079 172.795 166.102 173.662C167.125 174.511 167.688 175.664 167.792 177.12H164.308C164.256 176.548 164.013 176.097 163.58 175.768C163.164 175.421 162.601 175.248 161.89 175.248C161.231 175.248 160.72 175.369 160.356 175.612C160.009 175.855 159.836 176.193 159.836 176.626C159.836 177.111 160.079 177.484 160.564 177.744C161.049 177.987 161.803 178.238 162.826 178.498C163.866 178.758 164.724 179.027 165.4 179.304C166.076 179.581 166.657 180.015 167.142 180.604C167.645 181.176 167.905 181.939 167.922 182.892C167.922 183.724 167.688 184.469 167.22 185.128C166.769 185.787 166.111 186.307 165.244 186.688C164.395 187.052 163.398 187.234 162.254 187.234ZM185.548 172.596V187H181.882V185.18C181.414 185.804 180.799 186.298 180.036 186.662C179.291 187.009 178.476 187.182 177.592 187.182C176.465 187.182 175.469 186.948 174.602 186.48C173.735 185.995 173.051 185.293 172.548 184.374C172.063 183.438 171.82 182.329 171.82 181.046V172.596H175.46V180.526C175.46 181.67 175.746 182.554 176.318 183.178C176.89 183.785 177.67 184.088 178.658 184.088C179.663 184.088 180.452 183.785 181.024 183.178C181.596 182.554 181.882 181.67 181.882 180.526V172.596H185.548ZM193.819 167.76V187H190.179V167.76H193.819ZM202.694 175.586V182.554C202.694 183.039 202.806 183.395 203.032 183.62C203.274 183.828 203.673 183.932 204.228 183.932H205.918V187H203.63C200.562 187 199.028 185.509 199.028 182.528V175.586H197.312V172.596H199.028V169.034H202.694V172.596H205.918V175.586H202.694ZM208.64 179.746C208.64 178.29 208.926 176.999 209.498 175.872C210.087 174.745 210.876 173.879 211.864 173.272C212.869 172.665 213.987 172.362 215.218 172.362C216.293 172.362 217.229 172.579 218.026 173.012C218.841 173.445 219.491 173.991 219.976 174.65V172.596H223.642V187H219.976V184.894C219.508 185.57 218.858 186.133 218.026 186.584C217.211 187.017 216.267 187.234 215.192 187.234C213.979 187.234 212.869 186.922 211.864 186.298C210.876 185.674 210.087 184.799 209.498 183.672C208.926 182.528 208.64 181.219 208.64 179.746ZM219.976 179.798C219.976 178.914 219.803 178.16 219.456 177.536C219.109 176.895 218.641 176.409 218.052 176.08C217.463 175.733 216.83 175.56 216.154 175.56C215.478 175.56 214.854 175.725 214.282 176.054C213.71 176.383 213.242 176.869 212.878 177.51C212.531 178.134 212.358 178.879 212.358 179.746C212.358 180.613 212.531 181.375 212.878 182.034C213.242 182.675 213.71 183.169 214.282 183.516C214.871 183.863 215.495 184.036 216.154 184.036C216.83 184.036 217.463 183.871 218.052 183.542C218.641 183.195 219.109 182.71 219.456 182.086C219.803 181.445 219.976 180.682 219.976 179.798ZM232.475 175.586V182.554C232.475 183.039 232.588 183.395 232.813 183.62C233.056 183.828 233.454 183.932 234.009 183.932H235.699V187H233.411C230.343 187 228.809 185.509 228.809 182.528V175.586H227.093V172.596H228.809V169.034H232.475V172.596H235.699V175.586H232.475ZM241.203 170.88C240.562 170.88 240.024 170.681 239.591 170.282C239.175 169.866 238.967 169.355 238.967 168.748C238.967 168.141 239.175 167.639 239.591 167.24C240.024 166.824 240.562 166.616 241.203 166.616C241.844 166.616 242.373 166.824 242.789 167.24C243.222 167.639 243.439 168.141 243.439 168.748C243.439 169.355 243.222 169.866 242.789 170.282C242.373 170.681 241.844 170.88 241.203 170.88ZM242.997 172.596V187H239.357V172.596H242.997ZM254.029 187.234C252.643 187.234 251.395 186.931 250.285 186.324C249.176 185.7 248.301 184.825 247.659 183.698C247.035 182.571 246.723 181.271 246.723 179.798C246.723 178.325 247.044 177.025 247.685 175.898C248.344 174.771 249.237 173.905 250.363 173.298C251.49 172.674 252.747 172.362 254.133 172.362C255.52 172.362 256.777 172.674 257.903 173.298C259.03 173.905 259.914 174.771 260.555 175.898C261.214 177.025 261.543 178.325 261.543 179.798C261.543 181.271 261.205 182.571 260.529 183.698C259.871 184.825 258.969 185.7 257.825 186.324C256.699 186.931 255.433 187.234 254.029 187.234ZM254.029 184.062C254.688 184.062 255.303 183.906 255.875 183.594C256.465 183.265 256.933 182.779 257.279 182.138C257.626 181.497 257.799 180.717 257.799 179.798C257.799 178.429 257.435 177.38 256.707 176.652C255.997 175.907 255.121 175.534 254.081 175.534C253.041 175.534 252.166 175.907 251.455 176.652C250.762 177.38 250.415 178.429 250.415 179.798C250.415 181.167 250.753 182.225 251.429 182.97C252.123 183.698 252.989 184.062 254.029 184.062ZM273.235 172.388C274.951 172.388 276.338 172.934 277.395 174.026C278.453 175.101 278.981 176.609 278.981 178.55V187H275.341V179.044C275.341 177.9 275.055 177.025 274.483 176.418C273.911 175.794 273.131 175.482 272.143 175.482C271.138 175.482 270.341 175.794 269.751 176.418C269.179 177.025 268.893 177.9 268.893 179.044V187H265.253V172.596H268.893V174.39C269.379 173.766 269.994 173.281 270.739 172.934C271.502 172.57 272.334 172.388 273.235 172.388Z" fill="#3A3A38"/>
<path d="M131 205C142.757 258.682 196.817 362.081 319 346.224M319 346.224L303.361 329.706M319 346.224L311.68 371" stroke="#085AA3" stroke-width="2" stroke-dasharray="20 20"/>
<path d="M729 244C742.696 287.657 805.669 371.746 948 358.851M948 358.851L929.782 345.418M948 358.851L939.473 379" stroke="#085AA3" stroke-width="2" stroke-dasharray="20 20"/>
<path d="M416.709 246C431.078 182.294 497.15 59.5851 646.483 78.403M646.483 78.403L627.369 98.005M646.483 78.403L637.536 49" stroke="#085AA3" stroke-width="2" stroke-dasharray="20 20"/>
<defs>
<clipPath id="clip0_22_827">
<rect width="85" height="85" fill="white" transform="translate(1000.33 303.312)"/>
</clipPath>
<clipPath id="clip1_22_827">
<rect width="85" height="85" fill="white" transform="translate(373.905 303.839)"/>
</clipPath>
<clipPath id="clip2_22_827">
<rect width="110" height="110" fill="white" transform="translate(692.405 18.3394)"/>
</clipPath>
<clipPath id="clip3_22_827">
<rect width="83" height="82" fill="white" transform="translate(100.905 32.3394)"/>
</clipPath>
</defs>
</svg>
